<svg width="36" height="36" viewBox="0 0 36 36" fill="none" xmlns="http://www.w3.org/2000/svg">
<path d="M0 8C0 3.58172 3.58172 0 8 0H28C32.4183 0 36 3.58172 36 8V28C36 32.4183 32.4183 36 28 36H8C3.58172 36 0 32.4183 0 28V8Z" fill="#413A70"/>
<path opacity="0.4" d="M22.24 9.6499H13.76C11.29 9.6499 9.29004 11.6599 9.29004 14.1199V23.5299C9.29004 25.9899 11.3 27.9999 13.76 27.9999H22.23C24.7 27.9999 26.7 25.9899 26.7 23.5299V14.1199C26.71 11.6499 24.7 9.6499 22.24 9.6499Z" fill="white"/>
<path d="M20.35 8H15.65C14.61 8 13.76 8.84 13.76 9.88V10.82C13.76 11.86 14.6 12.7 15.64 12.7H20.35C21.39 12.7 22.23 11.86 22.23 10.82V9.88C22.24 8.84 21.39 8 20.35 8Z" fill="white"/>
<path d="M21 18.9502H14C13.59 18.9502 13.25 18.6102 13.25 18.2002C13.25 17.7902 13.59 17.4502 14 17.4502H21C21.41 17.4502 21.75 17.7902 21.75 18.2002C21.75 18.6102 21.41 18.9502 21 18.9502Z" fill="white"/>
<path d="M18.38 22.9502H14C13.59 22.9502 13.25 22.6102 13.25 22.2002C13.25 21.7902 13.59 21.4502 14 21.4502H18.38C18.79 21.4502 19.13 21.7902 19.13 22.2002C19.13 22.6102 18.79 22.9502 18.38 22.9502Z" fill="white"/>
</svg>
