<svg width="33" height="32" viewBox="0 0 33 32" fill="none" xmlns="http://www.w3.org/2000/svg">
<path opacity="0.4" d="M27.833 13.5866H23.9797C20.8197 13.5866 18.2463 11.0133 18.2463 7.85329V3.99996C18.2463 3.26663 17.6463 2.66663 16.913 2.66663H11.2597C7.15301 2.66663 3.83301 5.33329 3.83301 10.0933V21.9066C3.83301 26.6666 7.15301 29.3333 11.2597 29.3333H21.7397C25.8463 29.3333 29.1663 26.6666 29.1663 21.9066V14.92C29.1663 14.1866 28.5663 13.5866 27.833 13.5866Z" fill="#618D44"/>
<path d="M21.5666 2.9467C21.0199 2.40003 20.0732 2.77336 20.0732 3.53336V8.1867C20.0732 10.1334 21.7266 11.7467 23.7399 11.7467C25.0066 11.76 26.7666 11.76 28.2732 11.76C29.0332 11.76 29.4332 10.8667 28.8999 10.3334C26.9799 8.40003 23.5399 4.92003 21.5666 2.9467Z" fill="#618D44"/>
<path d="M15.8736 16.6266L13.2069 13.96C13.1936 13.9466 13.1802 13.9466 13.1802 13.9333C13.1002 13.8533 12.9936 13.7866 12.8869 13.7333C12.8736 13.7333 12.8736 13.7333 12.8602 13.7333C12.7536 13.6933 12.6469 13.68 12.5402 13.6666C12.5002 13.6666 12.4736 13.6666 12.4336 13.6666C12.3536 13.6666 12.2602 13.6933 12.1802 13.72C12.1402 13.7333 12.1136 13.7466 12.0869 13.76C11.9802 13.8133 11.8736 13.8666 11.7936 13.96L9.12691 16.6266C8.74025 17.0133 8.74025 17.6533 9.12691 18.04C9.51358 18.4266 10.1536 18.4266 10.5402 18.04L11.5002 17.08V22.6666C11.5002 23.2133 11.9536 23.6666 12.5002 23.6666C13.0469 23.6666 13.5002 23.2133 13.5002 22.6666V17.08L14.4602 18.04C14.6602 18.24 14.9136 18.3333 15.1669 18.3333C15.4202 18.3333 15.6736 18.24 15.8736 18.04C16.2602 17.6533 16.2602 17.0133 15.8736 16.6266Z" fill="#618D44"/>
</svg>
